<mxfile host="app.diagrams.net" modified="2020-12-23T15:53:36.136Z" agent="5.0 (Macintosh; Intel Mac OS X 11_1_0) AppleWebKit/537.36 (KHTML, like Gecko) Chrome/87.0.4280.88 Safari/537.36" etag="--gOyuMSR8JRrTu0MSpE" version="14.1.1" type="github">
  <diagram id="Mc1Mba3DYTuaImOtCGLE" name="第 1 页">
    <mxGraphModel dx="1833" dy="1062" grid="0" gridSize="10" guides="1" tooltips="1" connect="1" arrows="1" fold="1" page="0" pageScale="1" pageWidth="827" pageHeight="1169" math="0" shadow="0">
      <root>
        <mxCell id="0" />
        <mxCell id="1" parent="0" />
        <mxCell id="N7oHEYgILcq-lNXPLO86-1" value="" style="rounded=0;whiteSpace=wrap;html=1;strokeWidth=2;" vertex="1" parent="1">
          <mxGeometry x="171" y="85" width="225" height="128" as="geometry" />
        </mxCell>
        <mxCell id="N7oHEYgILcq-lNXPLO86-5" value="" style="rounded=0;whiteSpace=wrap;html=1;strokeWidth=2;" vertex="1" parent="1">
          <mxGeometry x="171" y="213" width="225" height="128" as="geometry" />
        </mxCell>
        <mxCell id="N7oHEYgILcq-lNXPLO86-6" value="" style="rounded=0;whiteSpace=wrap;html=1;strokeWidth=2;" vertex="1" parent="1">
          <mxGeometry x="52" y="400" width="225" height="128" as="geometry" />
        </mxCell>
        <mxCell id="N7oHEYgILcq-lNXPLO86-7" value="" style="rounded=0;whiteSpace=wrap;html=1;strokeWidth=2;" vertex="1" parent="1">
          <mxGeometry x="277" y="400" width="225" height="128" as="geometry" />
        </mxCell>
        <mxCell id="N7oHEYgILcq-lNXPLO86-8" value="收入" style="text;html=1;strokeColor=none;fillColor=none;align=center;verticalAlign=middle;whiteSpace=wrap;rounded=0;fontSize=20;" vertex="1" parent="1">
          <mxGeometry x="173" y="91" width="62" height="20" as="geometry" />
        </mxCell>
        <mxCell id="N7oHEYgILcq-lNXPLO86-10" value="支出&lt;span style=&quot;color: rgba(0 , 0 , 0 , 0) ; font-family: monospace ; font-size: 0px&quot;&gt;%3CmxGraphModel%3E%3Croot%3E%3CmxCell%20id%3D%220%22%2F%3E%3CmxCell%20id%3D%221%22%20parent%3D%220%22%2F%3E%3CmxCell%20id%3D%222%22%20value%3D%22%E6%94%B6%E5%85%A5%22%20style%3D%22text%3Bhtml%3D1%3BstrokeColor%3Dnone%3BfillColor%3Dnone%3Balign%3Dcenter%3BverticalAlign%3Dmiddle%3BwhiteSpace%3Dwrap%3Brounded%3D0%3BfontSize%3D20%3B%22%20vertex%3D%221%22%20parent%3D%221%22%3E%3CmxGeometry%20x%3D%22173%22%20y%3D%2291%22%20width%3D%2262%22%20height%3D%2220%22%20as%3D%22geometry%22%2F%3E%3C%2FmxCell%3E%3C%2Froot%3E%3C%2FmxGraphModel%3E&lt;/span&gt;" style="text;html=1;strokeColor=none;fillColor=none;align=center;verticalAlign=middle;whiteSpace=wrap;rounded=0;fontSize=20;" vertex="1" parent="1">
          <mxGeometry x="171" y="221" width="62" height="20" as="geometry" />
        </mxCell>
        <mxCell id="N7oHEYgILcq-lNXPLO86-11" value="资产" style="text;html=1;strokeColor=none;fillColor=none;align=center;verticalAlign=middle;whiteSpace=wrap;rounded=0;fontSize=20;" vertex="1" parent="1">
          <mxGeometry x="56" y="407" width="62" height="20" as="geometry" />
        </mxCell>
        <mxCell id="N7oHEYgILcq-lNXPLO86-12" value="负债" style="text;html=1;strokeColor=none;fillColor=none;align=center;verticalAlign=middle;whiteSpace=wrap;rounded=0;fontSize=20;" vertex="1" parent="1">
          <mxGeometry x="284" y="405" width="62" height="20" as="geometry" />
        </mxCell>
        <mxCell id="N7oHEYgILcq-lNXPLO86-13" value="" style="curved=1;endArrow=classic;html=1;fontSize=20;strokeWidth=2;exitX=0;exitY=0.5;exitDx=0;exitDy=0;entryX=0;entryY=0.5;entryDx=0;entryDy=0;strokeColor=#009900;" edge="1" parent="1" source="N7oHEYgILcq-lNXPLO86-6" target="N7oHEYgILcq-lNXPLO86-1">
          <mxGeometry width="50" height="50" relative="1" as="geometry">
            <mxPoint x="387" y="364" as="sourcePoint" />
            <mxPoint x="437" y="314" as="targetPoint" />
            <Array as="points">
              <mxPoint x="-17" y="230" />
            </Array>
          </mxGeometry>
        </mxCell>
        <mxCell id="N7oHEYgILcq-lNXPLO86-14" value="正向现金流" style="edgeLabel;html=1;align=center;verticalAlign=middle;resizable=0;points=[];fontSize=16;labelBackgroundColor=none;fontColor=#009900;" vertex="1" connectable="0" parent="N7oHEYgILcq-lNXPLO86-13">
          <mxGeometry x="-0.1371" y="-55" relative="1" as="geometry">
            <mxPoint x="30.12" y="23.630000000000003" as="offset" />
          </mxGeometry>
        </mxCell>
        <mxCell id="N7oHEYgILcq-lNXPLO86-15" value="税、社保、食物、房租、衣物、出行" style="text;html=1;strokeColor=none;fillColor=none;align=left;verticalAlign=top;whiteSpace=wrap;rounded=0;labelBackgroundColor=none;fontSize=16;" vertex="1" parent="1">
          <mxGeometry x="184" y="253" width="201" height="73" as="geometry" />
        </mxCell>
        <mxCell id="N7oHEYgILcq-lNXPLO86-16" value="工资、副业收入、股息、理财利息" style="text;html=1;strokeColor=none;fillColor=none;align=left;verticalAlign=top;whiteSpace=wrap;rounded=0;labelBackgroundColor=none;fontSize=16;" vertex="1" parent="1">
          <mxGeometry x="184" y="122" width="206" height="73" as="geometry" />
        </mxCell>
        <mxCell id="N7oHEYgILcq-lNXPLO86-17" value="股票、债券、银行理财、能产生收入的房产、智力资产、版税" style="text;html=1;strokeColor=none;fillColor=none;align=left;verticalAlign=top;whiteSpace=wrap;rounded=0;labelBackgroundColor=none;fontSize=16;" vertex="1" parent="1">
          <mxGeometry x="64" y="440" width="206" height="73" as="geometry" />
        </mxCell>
        <mxCell id="N7oHEYgILcq-lNXPLO86-18" value="抵押贷款（房贷车贷）、消费贷款、信用卡支出" style="text;html=1;strokeColor=none;fillColor=none;align=left;verticalAlign=top;whiteSpace=wrap;rounded=0;labelBackgroundColor=none;fontSize=16;" vertex="1" parent="1">
          <mxGeometry x="291" y="440" width="206" height="73" as="geometry" />
        </mxCell>
        <mxCell id="N7oHEYgILcq-lNXPLO86-19" value="" style="curved=1;endArrow=classic;html=1;strokeWidth=2;fontSize=16;exitX=1;exitY=0.5;exitDx=0;exitDy=0;entryX=1;entryY=0.5;entryDx=0;entryDy=0;strokeColor=#CC0000;" edge="1" parent="1" source="N7oHEYgILcq-lNXPLO86-7" target="N7oHEYgILcq-lNXPLO86-5">
          <mxGeometry width="50" height="50" relative="1" as="geometry">
            <mxPoint x="-256" y="395" as="sourcePoint" />
            <mxPoint x="-206" y="345" as="targetPoint" />
            <Array as="points">
              <mxPoint x="570" y="355" />
            </Array>
          </mxGeometry>
        </mxCell>
        <mxCell id="N7oHEYgILcq-lNXPLO86-20" value="负向现金流" style="edgeLabel;html=1;align=center;verticalAlign=middle;resizable=0;points=[];fontSize=16;labelBackgroundColor=none;fontColor=#CC0000;" vertex="1" connectable="0" parent="N7oHEYgILcq-lNXPLO86-19">
          <mxGeometry x="0.1086" y="29" relative="1" as="geometry">
            <mxPoint x="-58.85" y="-10.61" as="offset" />
          </mxGeometry>
        </mxCell>
      </root>
    </mxGraphModel>
  </diagram>
</mxfile>
